G04 #@! TF.GenerationSoftware,KiCad,Pcbnew,(5.0.0)*
G04 #@! TF.CreationDate,2020-07-27T10:37:02+01:00*
G04 #@! TF.ProjectId,USB2,555342322E6B696361645F7063620000,rev?*
G04 #@! TF.SameCoordinates,Original*
G04 #@! TF.FileFunction,Legend,Top*
G04 #@! TF.FilePolarity,Positive*
%FSLAX46Y46*%
G04 Gerber Fmt 4.6, Leading zero omitted, Abs format (unit mm)*
G04 Created by KiCad (PCBNEW (5.0.0)) date 07/27/20 10:37:02*
%MOMM*%
%LPD*%
G01*
G04 APERTURE LIST*
%ADD10C,0.050000*%
%ADD11C,0.120000*%
%ADD12C,0.150000*%
G04 APERTURE END LIST*
D10*
G04 #@! TO.C,J4*
X182505000Y-95550000D02*
X188695000Y-95550000D01*
X188600000Y-100000000D02*
X188600000Y-98500000D01*
X182490000Y-95550000D02*
X182260000Y-96150000D01*
X188700000Y-95550000D02*
X188950000Y-96150000D01*
X188639833Y-97100000D02*
G75*
G02X188950000Y-96800000I300167J0D01*
G01*
X188940000Y-98300000D02*
G75*
G02X188640000Y-98000000I0J300000D01*
G01*
X188950000Y-96150000D02*
X188950000Y-96800000D01*
X182260000Y-96150000D02*
X182260000Y-96800000D01*
X182260000Y-96800000D02*
G75*
G02X182560000Y-97100000I0J-300000D01*
G01*
X182560000Y-98000000D02*
G75*
G02X182260000Y-98300000I-300000J0D01*
G01*
X182560000Y-97100000D02*
X182560000Y-98000000D01*
X188640000Y-97100000D02*
X188640000Y-98010000D01*
X188940000Y-98300000D02*
G75*
G02X188620000Y-98620000I-320000J0D01*
G01*
X182580000Y-98620000D02*
G75*
G02X182260000Y-98300000I0J320000D01*
G01*
D11*
G04 #@! TO.C,J5*
X172810000Y-103070000D02*
X172810000Y-105730000D01*
X195730000Y-103070000D02*
X172810000Y-103070000D01*
X195730000Y-105730000D02*
X172810000Y-105730000D01*
X195730000Y-103070000D02*
X195730000Y-105730000D01*
X197000000Y-103070000D02*
X198330000Y-103070000D01*
X198330000Y-103070000D02*
X198330000Y-104400000D01*
G04 #@! TO.C,J4*
D12*
X192066666Y-103052380D02*
X192066666Y-103766666D01*
X192019047Y-103909523D01*
X191923809Y-104004761D01*
X191780952Y-104052380D01*
X191685714Y-104052380D01*
X192971428Y-103385714D02*
X192971428Y-104052380D01*
X192733333Y-103004761D02*
X192495238Y-103719047D01*
X193114285Y-103719047D01*
G04 #@! TO.C,J5*
X198782380Y-104733333D02*
X199496666Y-104733333D01*
X199639523Y-104780952D01*
X199734761Y-104876190D01*
X199782380Y-105019047D01*
X199782380Y-105114285D01*
X198782380Y-103780952D02*
X198782380Y-104257142D01*
X199258571Y-104304761D01*
X199210952Y-104257142D01*
X199163333Y-104161904D01*
X199163333Y-103923809D01*
X199210952Y-103828571D01*
X199258571Y-103780952D01*
X199353809Y-103733333D01*
X199591904Y-103733333D01*
X199687142Y-103780952D01*
X199734761Y-103828571D01*
X199782380Y-103923809D01*
X199782380Y-104161904D01*
X199734761Y-104257142D01*
X199687142Y-104304761D01*
G04 #@! TD*
M02*
