G04 #@! TF.GenerationSoftware,KiCad,Pcbnew,(5.0.0)*
G04 #@! TF.CreationDate,2020-07-27T10:37:02+01:00*
G04 #@! TF.ProjectId,USB2,555342322E6B696361645F7063620000,rev?*
G04 #@! TF.SameCoordinates,Original*
G04 #@! TF.FileFunction,Copper,L2,Bot,Signal*
G04 #@! TF.FilePolarity,Positive*
%FSLAX46Y46*%
G04 Gerber Fmt 4.6, Leading zero omitted, Abs format (unit mm)*
G04 Created by KiCad (PCBNEW (5.0.0)) date 07/27/20 10:37:02*
%MOMM*%
%LPD*%
G01*
G04 APERTURE LIST*
G04 #@! TA.AperFunction,SMDPad,CuDef*
%ADD10R,0.250000X2.300000*%
G04 #@! TD*
G04 #@! TA.AperFunction,SMDPad,CuDef*
%ADD11R,0.250000X1.800000*%
G04 #@! TD*
G04 #@! TA.AperFunction,ComponentPad*
%ADD12R,1.700000X1.700000*%
G04 #@! TD*
G04 #@! TA.AperFunction,ComponentPad*
%ADD13O,1.700000X1.700000*%
G04 #@! TD*
G04 #@! TA.AperFunction,ViaPad*
%ADD14C,0.800000*%
G04 #@! TD*
G04 #@! TA.AperFunction,Conductor*
%ADD15C,0.200000*%
G04 #@! TD*
G04 #@! TA.AperFunction,Conductor*
%ADD16C,0.254000*%
G04 #@! TD*
G04 APERTURE END LIST*
D10*
G04 #@! TO.P,J4,B1*
G04 #@! TO.N,GND*
X182850000Y-97150000D03*
D11*
G04 #@! TO.P,J4,B11*
G04 #@! TO.N,N/C*
X187850000Y-97400000D03*
D10*
G04 #@! TO.P,J4,B9*
G04 #@! TO.N,VBUS*
X186850000Y-97150000D03*
D11*
G04 #@! TO.P,J4,B8*
G04 #@! TO.N,/SBUS2*
X186350000Y-97400000D03*
G04 #@! TO.P,J4,B10*
G04 #@! TO.N,N/C*
X187350000Y-97400000D03*
G04 #@! TO.P,J4,B3*
X183850000Y-97400000D03*
G04 #@! TO.P,J4,B6*
G04 #@! TO.N,/USBD+*
X185350000Y-97400000D03*
D10*
G04 #@! TO.P,J4,B4*
G04 #@! TO.N,VBUS*
X184350000Y-97150000D03*
D11*
G04 #@! TO.P,J4,B5*
G04 #@! TO.N,/CC2*
X184850000Y-97400000D03*
G04 #@! TO.P,J4,B2*
G04 #@! TO.N,N/C*
X183350000Y-97400000D03*
D10*
G04 #@! TO.P,J4,B12*
G04 #@! TO.N,GND*
X188350000Y-97150000D03*
D11*
G04 #@! TO.P,J4,B7*
G04 #@! TO.N,/USBD-*
X185850000Y-97400000D03*
G04 #@! TD*
D12*
G04 #@! TO.P,J5,1*
G04 #@! TO.N,VBUS*
X197000000Y-104400000D03*
D13*
G04 #@! TO.P,J5,2*
X194460000Y-104400000D03*
G04 #@! TO.P,J5,3*
G04 #@! TO.N,/CC1*
X191920000Y-104400000D03*
G04 #@! TO.P,J5,4*
G04 #@! TO.N,/SBUS2*
X189380000Y-104400000D03*
G04 #@! TO.P,J5,5*
G04 #@! TO.N,/USBD-*
X186840000Y-104400000D03*
G04 #@! TO.P,J5,6*
G04 #@! TO.N,/USBD+*
X184300000Y-104400000D03*
G04 #@! TO.P,J5,7*
G04 #@! TO.N,/SBUS1*
X181760000Y-104400000D03*
G04 #@! TO.P,J5,8*
G04 #@! TO.N,/CC2*
X179220000Y-104400000D03*
G04 #@! TO.P,J5,9*
G04 #@! TO.N,GND*
X176680000Y-104400000D03*
G04 #@! TO.P,J5,10*
X174140000Y-104400000D03*
G04 #@! TD*
D14*
G04 #@! TO.N,GND*
X187900000Y-99200000D03*
X184300000Y-101900000D03*
X186900000Y-102700000D03*
X190300000Y-102500000D03*
X191500000Y-100800000D03*
X179300000Y-101000000D03*
G04 #@! TD*
D15*
G04 #@! TO.N,GND*
X183300000Y-99250000D02*
X183300000Y-99150000D01*
X182885010Y-98134623D02*
X182885010Y-97150000D01*
X182885010Y-98735010D02*
X182885010Y-98134623D01*
X183300000Y-99150000D02*
X182885010Y-98735010D01*
X188100000Y-99100000D02*
X188100000Y-98800000D01*
X188100000Y-98800000D02*
X188200000Y-98700000D01*
X188350000Y-98390367D02*
X188350000Y-98159633D01*
X188274990Y-98465377D02*
X188350000Y-98390367D01*
X188274990Y-98540012D02*
X188274990Y-98465377D01*
X188215001Y-98600001D02*
X188274990Y-98540012D01*
X188200000Y-98600001D02*
X188215001Y-98600001D01*
X188200000Y-98700000D02*
X188200000Y-98600001D01*
G04 #@! TO.N,/USBD+*
X185350000Y-98555002D02*
X185400000Y-98605002D01*
X185350000Y-97400000D02*
X185350000Y-98555002D01*
X185400000Y-103300000D02*
X184300000Y-104400000D01*
X185400000Y-98605002D02*
X185400000Y-103300000D01*
G04 #@! TO.N,VBUS*
X195662081Y-104400000D02*
X197000000Y-104400000D01*
X194460000Y-104400000D02*
X195662081Y-104400000D01*
X186850000Y-96334998D02*
X186850000Y-97150000D01*
X186565002Y-96050000D02*
X186850000Y-96334998D01*
X184650000Y-96050000D02*
X186565002Y-96050000D01*
X184350000Y-97150000D02*
X184350000Y-96350000D01*
X184350000Y-96350000D02*
X184650000Y-96050000D01*
X191810000Y-101750000D02*
X194460000Y-104400000D01*
X186850000Y-97150000D02*
X186850000Y-99150000D01*
X189890367Y-101750000D02*
X191810000Y-101750000D01*
X187200000Y-99500000D02*
X187200000Y-100600000D01*
X186850000Y-99150000D02*
X187200000Y-99500000D01*
X189874677Y-101765690D02*
X189890367Y-101750000D01*
X188365690Y-101765690D02*
X189874677Y-101765690D01*
X187200000Y-100600000D02*
X188365690Y-101765690D01*
G04 #@! TO.N,/USBD-*
X185850000Y-103410000D02*
X186840000Y-104400000D01*
X185850000Y-97400000D02*
X185850000Y-103410000D01*
G04 #@! TO.N,/SBUS2*
X186350000Y-97400000D02*
X186350000Y-99215700D01*
X189380000Y-102245700D02*
X189380000Y-103197919D01*
X189380000Y-103197919D02*
X189380000Y-104400000D01*
X186734300Y-99600000D02*
X186734300Y-100934300D01*
X186350000Y-99215700D02*
X186734300Y-99600000D01*
X187965700Y-102165700D02*
X189300000Y-102165700D01*
X186734300Y-100934300D02*
X187965700Y-102165700D01*
X189300000Y-102165700D02*
X189380000Y-102245700D01*
G04 #@! TO.N,/CC2*
X184850000Y-97400000D02*
X184850000Y-100200000D01*
X184850000Y-100200000D02*
X182400000Y-102650000D01*
X180970000Y-102650000D02*
X179220000Y-104400000D01*
X182400000Y-102650000D02*
X180970000Y-102650000D01*
G04 #@! TD*
D16*
G04 #@! TO.N,GND*
G36*
X187671363Y-98622737D02*
X187686673Y-98659699D01*
X187865302Y-98838327D01*
X188098691Y-98935000D01*
X188128750Y-98935000D01*
X188222998Y-98840752D01*
X188222998Y-98935000D01*
X188248000Y-98935000D01*
X188248001Y-99965326D01*
X188241104Y-100000000D01*
X188268423Y-100137344D01*
X188346222Y-100253778D01*
X188462656Y-100331577D01*
X188565331Y-100352000D01*
X188600000Y-100358896D01*
X188634669Y-100352000D01*
X198548001Y-100352000D01*
X198548000Y-102534668D01*
X198548001Y-102534673D01*
X198548000Y-106248000D01*
X172552000Y-106248000D01*
X172552000Y-104756892D01*
X172698514Y-104756892D01*
X172944817Y-105281358D01*
X173373076Y-105671645D01*
X173783110Y-105841476D01*
X174013000Y-105720155D01*
X174013000Y-104527000D01*
X174267000Y-104527000D01*
X174267000Y-105720155D01*
X174496890Y-105841476D01*
X174906924Y-105671645D01*
X175335183Y-105281358D01*
X175410000Y-105122046D01*
X175484817Y-105281358D01*
X175913076Y-105671645D01*
X176323110Y-105841476D01*
X176553000Y-105720155D01*
X176553000Y-104527000D01*
X174267000Y-104527000D01*
X174013000Y-104527000D01*
X172819181Y-104527000D01*
X172698514Y-104756892D01*
X172552000Y-104756892D01*
X172552000Y-104043108D01*
X172698514Y-104043108D01*
X172819181Y-104273000D01*
X174013000Y-104273000D01*
X174013000Y-103079845D01*
X174267000Y-103079845D01*
X174267000Y-104273000D01*
X176553000Y-104273000D01*
X176553000Y-103079845D01*
X176323110Y-102958524D01*
X175913076Y-103128355D01*
X175484817Y-103518642D01*
X175410000Y-103677954D01*
X175335183Y-103518642D01*
X174906924Y-103128355D01*
X174496890Y-102958524D01*
X174267000Y-103079845D01*
X174013000Y-103079845D01*
X173783110Y-102958524D01*
X173373076Y-103128355D01*
X172944817Y-103518642D01*
X172698514Y-104043108D01*
X172552000Y-104043108D01*
X172552000Y-100352000D01*
X182525331Y-100352000D01*
X182560000Y-100358896D01*
X182594669Y-100352000D01*
X182697344Y-100331577D01*
X182813778Y-100253778D01*
X182891577Y-100137344D01*
X182918896Y-100000000D01*
X182912000Y-99965331D01*
X182912000Y-98935000D01*
X182977002Y-98935000D01*
X182977002Y-98840752D01*
X183071250Y-98935000D01*
X183101309Y-98935000D01*
X183334698Y-98838327D01*
X183513327Y-98659699D01*
X183528637Y-98622737D01*
X183600000Y-98608542D01*
X183725000Y-98633406D01*
X183975000Y-98633406D01*
X184100000Y-98608542D01*
X184225000Y-98633406D01*
X184423000Y-98633406D01*
X184423001Y-100023129D01*
X182223132Y-102223000D01*
X181012054Y-102223000D01*
X180970000Y-102214635D01*
X180927946Y-102223000D01*
X180803393Y-102247775D01*
X180662150Y-102342150D01*
X180638328Y-102377803D01*
X179706576Y-103309555D01*
X179679242Y-103291291D01*
X179335920Y-103223000D01*
X179104080Y-103223000D01*
X178760758Y-103291291D01*
X178371431Y-103551431D01*
X178111291Y-103940758D01*
X178100023Y-103997406D01*
X177875183Y-103518642D01*
X177446924Y-103128355D01*
X177036890Y-102958524D01*
X176807000Y-103079845D01*
X176807000Y-104273000D01*
X176827000Y-104273000D01*
X176827000Y-104527000D01*
X176807000Y-104527000D01*
X176807000Y-105720155D01*
X177036890Y-105841476D01*
X177446924Y-105671645D01*
X177875183Y-105281358D01*
X178100023Y-104802594D01*
X178111291Y-104859242D01*
X178371431Y-105248569D01*
X178760758Y-105508709D01*
X179104080Y-105577000D01*
X179335920Y-105577000D01*
X179679242Y-105508709D01*
X180068569Y-105248569D01*
X180328709Y-104859242D01*
X180420058Y-104400000D01*
X180559942Y-104400000D01*
X180651291Y-104859242D01*
X180911431Y-105248569D01*
X181300758Y-105508709D01*
X181644080Y-105577000D01*
X181875920Y-105577000D01*
X182219242Y-105508709D01*
X182608569Y-105248569D01*
X182868709Y-104859242D01*
X182960058Y-104400000D01*
X182868709Y-103940758D01*
X182608569Y-103551431D01*
X182219242Y-103291291D01*
X181875920Y-103223000D01*
X181644080Y-103223000D01*
X181300758Y-103291291D01*
X180911431Y-103551431D01*
X180651291Y-103940758D01*
X180559942Y-104400000D01*
X180420058Y-104400000D01*
X180328709Y-103940758D01*
X180310445Y-103913424D01*
X181146869Y-103077000D01*
X182357947Y-103077000D01*
X182400000Y-103085365D01*
X182442053Y-103077000D01*
X182442054Y-103077000D01*
X182566607Y-103052225D01*
X182707850Y-102957850D01*
X182731675Y-102922193D01*
X184973000Y-100680869D01*
X184973001Y-103123130D01*
X184786576Y-103309555D01*
X184759242Y-103291291D01*
X184415920Y-103223000D01*
X184184080Y-103223000D01*
X183840758Y-103291291D01*
X183451431Y-103551431D01*
X183191291Y-103940758D01*
X183099942Y-104400000D01*
X183191291Y-104859242D01*
X183451431Y-105248569D01*
X183840758Y-105508709D01*
X184184080Y-105577000D01*
X184415920Y-105577000D01*
X184759242Y-105508709D01*
X185148569Y-105248569D01*
X185408709Y-104859242D01*
X185500058Y-104400000D01*
X185408709Y-103940758D01*
X185390445Y-103913424D01*
X185568448Y-103735421D01*
X185577805Y-103741673D01*
X185749555Y-103913424D01*
X185731291Y-103940758D01*
X185639942Y-104400000D01*
X185731291Y-104859242D01*
X185991431Y-105248569D01*
X186380758Y-105508709D01*
X186724080Y-105577000D01*
X186955920Y-105577000D01*
X187299242Y-105508709D01*
X187688569Y-105248569D01*
X187948709Y-104859242D01*
X188040058Y-104400000D01*
X187948709Y-103940758D01*
X187688569Y-103551431D01*
X187299242Y-103291291D01*
X186955920Y-103223000D01*
X186724080Y-103223000D01*
X186380758Y-103291291D01*
X186353424Y-103309555D01*
X186277000Y-103233132D01*
X186277000Y-99746569D01*
X186307300Y-99776869D01*
X186307301Y-100892243D01*
X186298935Y-100934300D01*
X186319039Y-101035365D01*
X186332076Y-101100907D01*
X186426451Y-101242150D01*
X186462105Y-101265973D01*
X187634027Y-102437896D01*
X187657850Y-102473550D01*
X187749322Y-102534669D01*
X187799093Y-102567925D01*
X187965700Y-102601065D01*
X188007754Y-102592700D01*
X188953000Y-102592700D01*
X188953001Y-103155861D01*
X188953000Y-103155866D01*
X188953000Y-103284878D01*
X188920758Y-103291291D01*
X188531431Y-103551431D01*
X188271291Y-103940758D01*
X188179942Y-104400000D01*
X188271291Y-104859242D01*
X188531431Y-105248569D01*
X188920758Y-105508709D01*
X189264080Y-105577000D01*
X189495920Y-105577000D01*
X189839242Y-105508709D01*
X190228569Y-105248569D01*
X190488709Y-104859242D01*
X190580058Y-104400000D01*
X190719942Y-104400000D01*
X190811291Y-104859242D01*
X191071431Y-105248569D01*
X191460758Y-105508709D01*
X191804080Y-105577000D01*
X192035920Y-105577000D01*
X192379242Y-105508709D01*
X192768569Y-105248569D01*
X193028709Y-104859242D01*
X193120058Y-104400000D01*
X193028709Y-103940758D01*
X192768569Y-103551431D01*
X192379242Y-103291291D01*
X192035920Y-103223000D01*
X191804080Y-103223000D01*
X191460758Y-103291291D01*
X191071431Y-103551431D01*
X190811291Y-103940758D01*
X190719942Y-104400000D01*
X190580058Y-104400000D01*
X190488709Y-103940758D01*
X190228569Y-103551431D01*
X189839242Y-103291291D01*
X189807000Y-103284878D01*
X189807000Y-102287752D01*
X189815365Y-102245699D01*
X189807000Y-102203646D01*
X189804821Y-102192690D01*
X189832624Y-102192690D01*
X189874677Y-102201055D01*
X189916730Y-102192690D01*
X189916731Y-102192690D01*
X189995610Y-102177000D01*
X191633132Y-102177000D01*
X193369555Y-103913424D01*
X193351291Y-103940758D01*
X193259942Y-104400000D01*
X193351291Y-104859242D01*
X193611431Y-105248569D01*
X194000758Y-105508709D01*
X194344080Y-105577000D01*
X194575920Y-105577000D01*
X194919242Y-105508709D01*
X195308569Y-105248569D01*
X195568709Y-104859242D01*
X195575122Y-104827000D01*
X195816594Y-104827000D01*
X195816594Y-105250000D01*
X195841973Y-105377589D01*
X195914246Y-105485754D01*
X196022411Y-105558027D01*
X196150000Y-105583406D01*
X197850000Y-105583406D01*
X197977589Y-105558027D01*
X198085754Y-105485754D01*
X198158027Y-105377589D01*
X198183406Y-105250000D01*
X198183406Y-103550000D01*
X198158027Y-103422411D01*
X198085754Y-103314246D01*
X197977589Y-103241973D01*
X197850000Y-103216594D01*
X196150000Y-103216594D01*
X196022411Y-103241973D01*
X195914246Y-103314246D01*
X195841973Y-103422411D01*
X195816594Y-103550000D01*
X195816594Y-103973000D01*
X195575122Y-103973000D01*
X195568709Y-103940758D01*
X195308569Y-103551431D01*
X194919242Y-103291291D01*
X194575920Y-103223000D01*
X194344080Y-103223000D01*
X194000758Y-103291291D01*
X193973424Y-103309555D01*
X192141675Y-101477807D01*
X192117850Y-101442150D01*
X191976607Y-101347775D01*
X191852054Y-101323000D01*
X191852053Y-101323000D01*
X191810000Y-101314635D01*
X191767947Y-101323000D01*
X189932419Y-101323000D01*
X189890366Y-101314635D01*
X189848314Y-101323000D01*
X189848313Y-101323000D01*
X189769434Y-101338690D01*
X188542559Y-101338690D01*
X187627000Y-100423132D01*
X187627000Y-99542054D01*
X187635365Y-99500000D01*
X187602225Y-99333393D01*
X187574667Y-99292150D01*
X187507850Y-99192150D01*
X187472196Y-99168327D01*
X187277000Y-98973132D01*
X187277000Y-98633406D01*
X187475000Y-98633406D01*
X187600000Y-98608542D01*
X187671363Y-98622737D01*
X187671363Y-98622737D01*
G37*
X187671363Y-98622737D02*
X187686673Y-98659699D01*
X187865302Y-98838327D01*
X188098691Y-98935000D01*
X188128750Y-98935000D01*
X188222998Y-98840752D01*
X188222998Y-98935000D01*
X188248000Y-98935000D01*
X188248001Y-99965326D01*
X188241104Y-100000000D01*
X188268423Y-100137344D01*
X188346222Y-100253778D01*
X188462656Y-100331577D01*
X188565331Y-100352000D01*
X188600000Y-100358896D01*
X188634669Y-100352000D01*
X198548001Y-100352000D01*
X198548000Y-102534668D01*
X198548001Y-102534673D01*
X198548000Y-106248000D01*
X172552000Y-106248000D01*
X172552000Y-104756892D01*
X172698514Y-104756892D01*
X172944817Y-105281358D01*
X173373076Y-105671645D01*
X173783110Y-105841476D01*
X174013000Y-105720155D01*
X174013000Y-104527000D01*
X174267000Y-104527000D01*
X174267000Y-105720155D01*
X174496890Y-105841476D01*
X174906924Y-105671645D01*
X175335183Y-105281358D01*
X175410000Y-105122046D01*
X175484817Y-105281358D01*
X175913076Y-105671645D01*
X176323110Y-105841476D01*
X176553000Y-105720155D01*
X176553000Y-104527000D01*
X174267000Y-104527000D01*
X174013000Y-104527000D01*
X172819181Y-104527000D01*
X172698514Y-104756892D01*
X172552000Y-104756892D01*
X172552000Y-104043108D01*
X172698514Y-104043108D01*
X172819181Y-104273000D01*
X174013000Y-104273000D01*
X174013000Y-103079845D01*
X174267000Y-103079845D01*
X174267000Y-104273000D01*
X176553000Y-104273000D01*
X176553000Y-103079845D01*
X176323110Y-102958524D01*
X175913076Y-103128355D01*
X175484817Y-103518642D01*
X175410000Y-103677954D01*
X175335183Y-103518642D01*
X174906924Y-103128355D01*
X174496890Y-102958524D01*
X174267000Y-103079845D01*
X174013000Y-103079845D01*
X173783110Y-102958524D01*
X173373076Y-103128355D01*
X172944817Y-103518642D01*
X172698514Y-104043108D01*
X172552000Y-104043108D01*
X172552000Y-100352000D01*
X182525331Y-100352000D01*
X182560000Y-100358896D01*
X182594669Y-100352000D01*
X182697344Y-100331577D01*
X182813778Y-100253778D01*
X182891577Y-100137344D01*
X182918896Y-100000000D01*
X182912000Y-99965331D01*
X182912000Y-98935000D01*
X182977002Y-98935000D01*
X182977002Y-98840752D01*
X183071250Y-98935000D01*
X183101309Y-98935000D01*
X183334698Y-98838327D01*
X183513327Y-98659699D01*
X183528637Y-98622737D01*
X183600000Y-98608542D01*
X183725000Y-98633406D01*
X183975000Y-98633406D01*
X184100000Y-98608542D01*
X184225000Y-98633406D01*
X184423000Y-98633406D01*
X184423001Y-100023129D01*
X182223132Y-102223000D01*
X181012054Y-102223000D01*
X180970000Y-102214635D01*
X180927946Y-102223000D01*
X180803393Y-102247775D01*
X180662150Y-102342150D01*
X180638328Y-102377803D01*
X179706576Y-103309555D01*
X179679242Y-103291291D01*
X179335920Y-103223000D01*
X179104080Y-103223000D01*
X178760758Y-103291291D01*
X178371431Y-103551431D01*
X178111291Y-103940758D01*
X178100023Y-103997406D01*
X177875183Y-103518642D01*
X177446924Y-103128355D01*
X177036890Y-102958524D01*
X176807000Y-103079845D01*
X176807000Y-104273000D01*
X176827000Y-104273000D01*
X176827000Y-104527000D01*
X176807000Y-104527000D01*
X176807000Y-105720155D01*
X177036890Y-105841476D01*
X177446924Y-105671645D01*
X177875183Y-105281358D01*
X178100023Y-104802594D01*
X178111291Y-104859242D01*
X178371431Y-105248569D01*
X178760758Y-105508709D01*
X179104080Y-105577000D01*
X179335920Y-105577000D01*
X179679242Y-105508709D01*
X180068569Y-105248569D01*
X180328709Y-104859242D01*
X180420058Y-104400000D01*
X180559942Y-104400000D01*
X180651291Y-104859242D01*
X180911431Y-105248569D01*
X181300758Y-105508709D01*
X181644080Y-105577000D01*
X181875920Y-105577000D01*
X182219242Y-105508709D01*
X182608569Y-105248569D01*
X182868709Y-104859242D01*
X182960058Y-104400000D01*
X182868709Y-103940758D01*
X182608569Y-103551431D01*
X182219242Y-103291291D01*
X181875920Y-103223000D01*
X181644080Y-103223000D01*
X181300758Y-103291291D01*
X180911431Y-103551431D01*
X180651291Y-103940758D01*
X180559942Y-104400000D01*
X180420058Y-104400000D01*
X180328709Y-103940758D01*
X180310445Y-103913424D01*
X181146869Y-103077000D01*
X182357947Y-103077000D01*
X182400000Y-103085365D01*
X182442053Y-103077000D01*
X182442054Y-103077000D01*
X182566607Y-103052225D01*
X182707850Y-102957850D01*
X182731675Y-102922193D01*
X184973000Y-100680869D01*
X184973001Y-103123130D01*
X184786576Y-103309555D01*
X184759242Y-103291291D01*
X184415920Y-103223000D01*
X184184080Y-103223000D01*
X183840758Y-103291291D01*
X183451431Y-103551431D01*
X183191291Y-103940758D01*
X183099942Y-104400000D01*
X183191291Y-104859242D01*
X183451431Y-105248569D01*
X183840758Y-105508709D01*
X184184080Y-105577000D01*
X184415920Y-105577000D01*
X184759242Y-105508709D01*
X185148569Y-105248569D01*
X185408709Y-104859242D01*
X185500058Y-104400000D01*
X185408709Y-103940758D01*
X185390445Y-103913424D01*
X185568448Y-103735421D01*
X185577805Y-103741673D01*
X185749555Y-103913424D01*
X185731291Y-103940758D01*
X185639942Y-104400000D01*
X185731291Y-104859242D01*
X185991431Y-105248569D01*
X186380758Y-105508709D01*
X186724080Y-105577000D01*
X186955920Y-105577000D01*
X187299242Y-105508709D01*
X187688569Y-105248569D01*
X187948709Y-104859242D01*
X188040058Y-104400000D01*
X187948709Y-103940758D01*
X187688569Y-103551431D01*
X187299242Y-103291291D01*
X186955920Y-103223000D01*
X186724080Y-103223000D01*
X186380758Y-103291291D01*
X186353424Y-103309555D01*
X186277000Y-103233132D01*
X186277000Y-99746569D01*
X186307300Y-99776869D01*
X186307301Y-100892243D01*
X186298935Y-100934300D01*
X186319039Y-101035365D01*
X186332076Y-101100907D01*
X186426451Y-101242150D01*
X186462105Y-101265973D01*
X187634027Y-102437896D01*
X187657850Y-102473550D01*
X187749322Y-102534669D01*
X187799093Y-102567925D01*
X187965700Y-102601065D01*
X188007754Y-102592700D01*
X188953000Y-102592700D01*
X188953001Y-103155861D01*
X188953000Y-103155866D01*
X188953000Y-103284878D01*
X188920758Y-103291291D01*
X188531431Y-103551431D01*
X188271291Y-103940758D01*
X188179942Y-104400000D01*
X188271291Y-104859242D01*
X188531431Y-105248569D01*
X188920758Y-105508709D01*
X189264080Y-105577000D01*
X189495920Y-105577000D01*
X189839242Y-105508709D01*
X190228569Y-105248569D01*
X190488709Y-104859242D01*
X190580058Y-104400000D01*
X190719942Y-104400000D01*
X190811291Y-104859242D01*
X191071431Y-105248569D01*
X191460758Y-105508709D01*
X191804080Y-105577000D01*
X192035920Y-105577000D01*
X192379242Y-105508709D01*
X192768569Y-105248569D01*
X193028709Y-104859242D01*
X193120058Y-104400000D01*
X193028709Y-103940758D01*
X192768569Y-103551431D01*
X192379242Y-103291291D01*
X192035920Y-103223000D01*
X191804080Y-103223000D01*
X191460758Y-103291291D01*
X191071431Y-103551431D01*
X190811291Y-103940758D01*
X190719942Y-104400000D01*
X190580058Y-104400000D01*
X190488709Y-103940758D01*
X190228569Y-103551431D01*
X189839242Y-103291291D01*
X189807000Y-103284878D01*
X189807000Y-102287752D01*
X189815365Y-102245699D01*
X189807000Y-102203646D01*
X189804821Y-102192690D01*
X189832624Y-102192690D01*
X189874677Y-102201055D01*
X189916730Y-102192690D01*
X189916731Y-102192690D01*
X189995610Y-102177000D01*
X191633132Y-102177000D01*
X193369555Y-103913424D01*
X193351291Y-103940758D01*
X193259942Y-104400000D01*
X193351291Y-104859242D01*
X193611431Y-105248569D01*
X194000758Y-105508709D01*
X194344080Y-105577000D01*
X194575920Y-105577000D01*
X194919242Y-105508709D01*
X195308569Y-105248569D01*
X195568709Y-104859242D01*
X195575122Y-104827000D01*
X195816594Y-104827000D01*
X195816594Y-105250000D01*
X195841973Y-105377589D01*
X195914246Y-105485754D01*
X196022411Y-105558027D01*
X196150000Y-105583406D01*
X197850000Y-105583406D01*
X197977589Y-105558027D01*
X198085754Y-105485754D01*
X198158027Y-105377589D01*
X198183406Y-105250000D01*
X198183406Y-103550000D01*
X198158027Y-103422411D01*
X198085754Y-103314246D01*
X197977589Y-103241973D01*
X197850000Y-103216594D01*
X196150000Y-103216594D01*
X196022411Y-103241973D01*
X195914246Y-103314246D01*
X195841973Y-103422411D01*
X195816594Y-103550000D01*
X195816594Y-103973000D01*
X195575122Y-103973000D01*
X195568709Y-103940758D01*
X195308569Y-103551431D01*
X194919242Y-103291291D01*
X194575920Y-103223000D01*
X194344080Y-103223000D01*
X194000758Y-103291291D01*
X193973424Y-103309555D01*
X192141675Y-101477807D01*
X192117850Y-101442150D01*
X191976607Y-101347775D01*
X191852054Y-101323000D01*
X191852053Y-101323000D01*
X191810000Y-101314635D01*
X191767947Y-101323000D01*
X189932419Y-101323000D01*
X189890366Y-101314635D01*
X189848314Y-101323000D01*
X189848313Y-101323000D01*
X189769434Y-101338690D01*
X188542559Y-101338690D01*
X187627000Y-100423132D01*
X187627000Y-99542054D01*
X187635365Y-99500000D01*
X187602225Y-99333393D01*
X187574667Y-99292150D01*
X187507850Y-99192150D01*
X187472196Y-99168327D01*
X187277000Y-98973132D01*
X187277000Y-98633406D01*
X187475000Y-98633406D01*
X187600000Y-98608542D01*
X187671363Y-98622737D01*
G36*
X188308406Y-97013017D02*
X188308406Y-97003000D01*
X188310398Y-97003000D01*
X188308406Y-97013017D01*
X188308406Y-97013017D01*
G37*
X188308406Y-97013017D02*
X188308406Y-97003000D01*
X188310398Y-97003000D01*
X188308406Y-97013017D01*
G04 #@! TD*
M02*
